<?xml version="1.0" encoding="UTF-8" standalone="no"?>
<!DOCTYPE svg PUBLIC "-//W3C//DTD SVG 1.1//EN" "http://www.w3.org/Graphics/SVG/1.1/DTD/svg11.dtd">
<svg class="railroad-diagram" width="475.5" height="366" viewBox="0 0 475.5 366" xmlns="http://www.w3.org/2000/svg" xmlns:xlink="http://www.w3.org/1999/xlink"><g transform="translate(.5 .5)"><g><path d="M20 21v20m0 -10h20"></path></g><g><path d="M40 31h0"></path><path d="M435.5 31h0"></path><path d="M40 31h20"></path><g><path d="M60 31h49.75"></path><g><path d="M109.75 31h10"></path><path d="M355.75 31h10"></path><g class="terminal "><path d="M119.75 31h0"></path><path d="M190.75 31h0"></path><rect x="119.75" y="20" width="71" height="22"></rect><text x="155.25" y="35">LPAREN</text></g><path d="M190.75 31h10"></path><path d="M200.75 31h10"></path><g class="non-terminal "><path d="M210.75 31h0"></path><path d="M264.75 31h0"></path><rect x="210.75" y="20" width="54" height="22" rx="10" ry="10"></rect><text x="237.75" y="35">expr</text></g><path d="M264.75 31h10"></path><path d="M274.75 31h10"></path><g class="terminal "><path d="M284.75 31h0"></path><path d="M355.75 31h0"></path><rect x="284.75" y="20" width="71" height="22"></rect><text x="320.25" y="35">RPAREN</text></g></g><path d="M365.75 31h49.75"></path></g><path d="M415.5 31h20"></path><path d="M40 31a10 10 0 0 1 10 10v18a10 10 0 0 0 10 10"></path><g><path d="M60 69h17"></path><g><path d="M77 69h10"></path><path d="M388.5 69h10"></path><g class="non-terminal "><path d="M87 69h0"></path><path d="M192 69h0"></path><rect x="87" y="58" width="105" height="22" rx="10" ry="10"></rect><text x="139.5" y="73">identifier</text></g><path d="M192 69h10"></path><g><path d="M202 69h0"></path><path d="M299 69h0"></path><path d="M202 69h20"></path><g><path d="M222 69h0"></path><g><path d="M222 69h10"></path><path d="M269 69h10"></path><g class="terminal "><path d="M232 69h0"></path><path d="M269 69h0"></path><rect x="232" y="58" width="37" height="22"></rect><text x="250.5" y="73">LE</text></g></g><path d="M279 69h0"></path></g><path d="M279 69h20"></path><path d="M202 69a10 10 0 0 1 10 10v18a10 10 0 0 0 10 10"></path><g><path d="M222 107h0"></path><g><path d="M222 107h10"></path><path d="M269 107h10"></path><g class="terminal "><path d="M232 107h0"></path><path d="M269 107h0"></path><rect x="232" y="96" width="37" height="22"></rect><text x="250.5" y="111">GE</text></g></g><path d="M279 107h0"></path></g><path d="M279 107a10 10 0 0 0 10 -10v-18a10 10 0 0 1 10 -10"></path><path d="M202 69a10 10 0 0 1 10 10v56a10 10 0 0 0 10 10"></path><g><path d="M222 145h0"></path><g><path d="M222 145h10"></path><path d="M269 145h10"></path><g class="terminal "><path d="M232 145h0"></path><path d="M269 145h0"></path><rect x="232" y="134" width="37" height="22"></rect><text x="250.5" y="149">GT</text></g></g><path d="M279 145h0"></path></g><path d="M279 145a10 10 0 0 0 10 -10v-56a10 10 0 0 1 10 -10"></path><path d="M202 69a10 10 0 0 1 10 10v94a10 10 0 0 0 10 10"></path><g><path d="M222 183h0"></path><g><path d="M222 183h10"></path><path d="M269 183h10"></path><g class="terminal "><path d="M232 183h0"></path><path d="M269 183h0"></path><rect x="232" y="172" width="37" height="22"></rect><text x="250.5" y="187">LT</text></g></g><path d="M279 183h0"></path></g><path d="M279 183a10 10 0 0 0 10 -10v-94a10 10 0 0 1 10 -10"></path></g><path d="M299 69h10"></path><g class="non-terminal "><path d="M309 69h0"></path><path d="M388.5 69h0"></path><rect x="309" y="58" width="79.5" height="22" rx="10" ry="10"></rect><text x="348.75" y="73">literal</text></g></g><path d="M398.5 69h17"></path></g><path d="M415.5 69a10 10 0 0 0 10 -10v-18a10 10 0 0 1 10 -10"></path><path d="M40 31a10 10 0 0 1 10 10v170a10 10 0 0 0 10 10"></path><g><path d="M60 221h0"></path><g><path d="M60 221h10"></path><path d="M405.5 221h10"></path><g class="non-terminal "><path d="M70 221h0"></path><path d="M175 221h0"></path><rect x="70" y="210" width="105" height="22" rx="10" ry="10"></rect><text x="122.5" y="225">identifier</text></g><path d="M175 221h10"></path><g><path d="M185 221h0"></path><path d="M316 221h0"></path><path d="M185 221h20"></path><g><path d="M205 221h4.25"></path><g><path d="M209.25 221h10"></path><path d="M281.75 221h10"></path><g class="terminal "><path d="M219.25 221h0"></path><path d="M281.75 221h0"></path><rect x="219.25" y="210" width="62.5" height="22"></rect><text x="250.5" y="225">EQUAL</text></g></g><path d="M291.75 221h4.25"></path></g><path d="M296 221h20"></path><path d="M185 221a10 10 0 0 1 10 10v18a10 10 0 0 0 10 10"></path><g><path d="M205 259h0"></path><g><path d="M205 259h10"></path><path d="M286 259h10"></path><g class="terminal "><path d="M215 259h0"></path><path d="M286 259h0"></path><rect x="215" y="248" width="71" height="22"></rect><text x="250.5" y="263">NEQUAL</text></g></g><path d="M296 259h0"></path></g><path d="M296 259a10 10 0 0 0 10 -10v-18a10 10 0 0 1 10 -10"></path></g><path d="M316 221h10"></path><g class="non-terminal "><path d="M326 221h0"></path><path d="M405.5 221h0"></path><rect x="326" y="210" width="79.5" height="22" rx="10" ry="10"></rect><text x="365.75" y="225">literal</text></g></g><path d="M415.5 221h0"></path></g><path d="M415.5 221a10 10 0 0 0 10 -10v-170a10 10 0 0 1 10 -10"></path><path d="M40 31a10 10 0 0 1 10 10v246a10 10 0 0 0 10 10"></path><g><path d="M60 297h71"></path><g><path d="M131 297h10"></path><path d="M334.5 297h10"></path><g class="non-terminal "><path d="M141 297h0"></path><path d="M195 297h0"></path><rect x="141" y="286" width="54" height="22" rx="10" ry="10"></rect><text x="168" y="301">expr</text></g><path d="M195 297h10"></path><path d="M205 297h10"></path><g class="terminal "><path d="M215 297h0"></path><path d="M260.5 297h0"></path><rect x="215" y="286" width="45.5" height="22"></rect><text x="237.75" y="301">AND</text></g><path d="M260.5 297h10"></path><path d="M270.5 297h10"></path><g class="non-terminal "><path d="M280.5 297h0"></path><path d="M334.5 297h0"></path><rect x="280.5" y="286" width="54" height="22" rx="10" ry="10"></rect><text x="307.5" y="301">expr</text></g></g><path d="M344.5 297h71"></path></g><path d="M415.5 297a10 10 0 0 0 10 -10v-246a10 10 0 0 1 10 -10"></path><path d="M40 31a10 10 0 0 1 10 10v284a10 10 0 0 0 10 10"></path><g><path d="M60 335h75.25"></path><g><path d="M135.25 335h10"></path><path d="M330.25 335h10"></path><g class="non-terminal "><path d="M145.25 335h0"></path><path d="M199.25 335h0"></path><rect x="145.25" y="324" width="54" height="22" rx="10" ry="10"></rect><text x="172.25" y="339">expr</text></g><path d="M199.25 335h10"></path><path d="M209.25 335h10"></path><g class="terminal "><path d="M219.25 335h0"></path><path d="M256.25 335h0"></path><rect x="219.25" y="324" width="37" height="22"></rect><text x="237.75" y="339">OR</text></g><path d="M256.25 335h10"></path><path d="M266.25 335h10"></path><g class="non-terminal "><path d="M276.25 335h0"></path><path d="M330.25 335h0"></path><rect x="276.25" y="324" width="54" height="22" rx="10" ry="10"></rect><text x="303.25" y="339">expr</text></g></g><path d="M340.25 335h75.25"></path></g><path d="M415.5 335a10 10 0 0 0 10 -10v-284a10 10 0 0 1 10 -10"></path></g><path d="M 435.5 31 h 20 m 0 -10 v 20"></path></g><defs><style type="text/css"><![CDATA[
svg.railroad-diagram path { stroke-width: 2; stroke: darkgray; fill: rgba(0, 0, 0, 0);}/* All text except comments. */svg.railroad-diagram text { font: bold 12px Hack, "Source Code Pro", monospace; text-anchor: middle; fill: #404040;}/* Comment text */svg.railroad-diagram text.comment { font: italic 10px Hack, "Source Code Pro", monospace; fill: #404040;}/* The terminal boxes. */svg.railroad-diagram g.terminal rect { stroke-width: 2; stroke: #404040; fill: rgba(200, 200, 200, 1);}svg.railroad-diagram g.non-terminal rect { /* The non-terminal boxes. */ stroke-width: 2; stroke: #404040; fill: rgba(255, 255, 255, 1);}/* Multiple choice text, not working atm. */svg.railroad-diagram text.diagram-text { font-size: 12px Hack, "Source Code Pro", monospace; fill: red;}/* Multiple choice text, not working atm. */svg.railroad-diagram path.diagram-text { stroke-width: 1; stroke: red; fill: red; cursor: help;}
 ]]>
</style></defs></svg>